<?xml version="1.0" standalone="no"?>
<!DOCTYPE svg PUBLIC "-//W3C//DTD SVG 20010904//EN"
 "http://www.w3.org/TR/2001/REC-SVG-20010904/DTD/svg10.dtd">
<svg version="1.0" xmlns="http://www.w3.org/2000/svg"
 width="1120.000000pt" height="1120.000000pt" viewBox="0 0 1120.000000 1120.000000"
 preserveAspectRatio="xMidYMid meet">
<metadata>
Created by potrace 1.14, written by Peter Selinger 2001-2017
</metadata>
<g transform="translate(0.000000,1120.000000) scale(0.100000,-0.100000)"
fill="#000000" stroke="none">
<path d="M5110 10484 c-300 -350 -615 -716 -700 -815 l-155 -180 -695 3 c-382
1 -832 3 -999 3 l-305 0 2 -980 c1 -539 5 -1052 9 -1141 l6 -161 -79 -89 c-44
-49 -362 -411 -709 -803 -346 -393 -630 -717 -630 -721 0 -4 164 -193 365
-420 201 -228 401 -455 445 -505 44 -50 195 -221 335 -379 140 -159 258 -293
261 -300 3 -6 2 -522 -1 -1146 -3 -624 -4 -1139 -2 -1144 3 -5 202 -6 486 -2
265 3 713 6 996 7 l515 1 155 -181 c85 -99 400 -465 700 -815 300 -349 548
-635 551 -635 3 -1 84 90 180 201 96 112 257 300 359 418 102 118 337 391 523
607 185 215 341 394 347 398 13 8 885 7 1514 -2 l489 -6 -7 1149 -7 1149 706
799 c388 439 705 802 705 806 0 4 -317 367 -705 806 l-706 799 7 1149 7 1149
-489 -6 c-629 -9 -1501 -10 -1514 -2 -6 4 -162 183 -347 398 -186 216 -421
489 -523 607 -102 118 -263 306 -359 418 -96 111 -177 202 -180 201 -3 0 -251
-286 -551 -635z m707 214 c81 -95 382 -445 667 -777 l520 -604 380 6 c210 4
638 8 951 9 l570 3 -4 -1095 -4 -1095 309 -350 c170 -193 477 -541 682 -773
l373 -422 -373 -422 c-205 -232 -512 -580 -682 -773 l-309 -350 4 -1095 4
-1095 -570 3 c-313 1 -741 5 -951 9 l-380 6 -520 -604 c-285 -332 -586 -682
-667 -776 -82 -95 -152 -173 -155 -172 -4 0 -48 48 -98 107 -50 59 -221 258
-380 443 -159 184 -417 484 -574 666 l-285 331 -665 -4 c-366 -2 -795 -6 -954
-8 l-289 -4 6 1096 7 1097 -57 64 c-214 239 -1303 1477 -1303 1481 0 4 1089
1242 1303 1481 l57 64 -7 1097 -6 1096 289 -4 c159 -2 588 -6 954 -8 l665 -4
285 331 c157 182 415 482 574 666 159 185 330 384 380 443 50 59 94 107 98
107 3 1 73 -77 155 -171z"/>
<path d="M5177 8979 c-169 -111 -409 -483 -512 -792 -57 -172 -75 -266 -82
-432 -6 -177 8 -280 62 -442 60 -179 66 -299 23 -443 -11 -36 -59 -148 -108
-250 -150 -318 -181 -423 -199 -679 -10 -139 -26 -179 -81 -198 -40 -15 -99
-9 -141 12 -91 47 -128 325 -95 713 17 194 14 277 -9 309 -13 17 -15 16 -40
-7 -47 -44 -181 -344 -256 -573 -63 -195 -122 -460 -155 -697 -21 -160 -30
-573 -15 -752 46 -539 209 -1045 476 -1477 202 -327 454 -555 755 -684 161
-69 441 -137 685 -168 148 -19 475 -16 618 5 432 63 793 247 1039 531 239 274
417 674 532 1191 55 247 77 415 83 640 12 430 -30 617 -284 1254 -152 381
-221 570 -268 731 -45 154 -59 173 -101 132 -15 -15 -16 -34 -11 -168 3 -82
18 -226 32 -320 92 -596 108 -764 86 -905 -13 -83 -31 -110 -71 -110 -45 0
-53 21 -61 157 -8 141 -22 231 -51 348 -44 177 -87 272 -203 449 -194 294
-246 571 -165 879 25 97 63 193 145 366 70 149 80 179 70 210 -11 35 -46 24
-125 -40 -253 -202 -417 -392 -528 -614 -56 -113 -84 -209 -131 -451 -76 -394
-137 -545 -241 -599 -66 -34 -129 2 -156 91 -24 75 -28 309 -11 536 30 382 -3
513 -225 898 -121 210 -149 265 -187 373 -56 160 -75 272 -75 457 0 165 8 239
46 423 28 138 18 152 -65 96z"/>
</g>
</svg>
